<svg width="234.185"  fill="none" height="21.593" viewBox="0 0 234.185 21.593" xmlns="http://www.w3.org/2000/svg"><g id="svgGroup" stroke-linecap="round" fill-rule="nonzero" font-size="9pt" stroke="#000" stroke-width=".1mm" fill="currentColor" style="stroke:#000;stroke-width:.1mm;fill:#000"><path fill="currentColor" d="M 119.986 0.176 L 123.252 0.176 A 10.856 10.856 0 0 1 126.885 0.769 A 9.833 9.833 0 0 1 129.134 1.904 Q 131.611 3.579 131.687 6.451 A 6.92 6.92 0 0 1 131.69 6.636 A 2.285 2.285 0 0 1 131.647 7.094 Q 131.541 7.608 131.177 7.874 A 2.309 2.309 0 0 1 130.812 8.094 Q 130.584 8.203 130.361 8.234 A 1.284 1.284 0 0 1 130.181 8.247 L 128.438 8.247 A 1.978 1.978 0 0 1 126.876 7.494 Q 126.579 7.146 126.343 6.636 A 4.421 4.421 0 0 0 125.465 5.354 Q 124.422 4.321 122.739 4.321 L 120.132 4.321 A 11.672 11.672 0 0 0 118.657 4.407 Q 117.063 4.611 116.193 5.298 A 2.737 2.737 0 0 0 115.781 5.698 A 3.699 3.699 0 0 0 115.191 6.755 Q 114.79 7.811 114.68 9.466 A 20.149 20.149 0 0 0 114.639 10.796 A 19.007 19.007 0 0 0 114.71 12.504 Q 114.923 14.861 115.781 15.901 A 3.137 3.137 0 0 0 116.959 16.758 Q 118.152 17.285 120.132 17.285 L 123.047 17.285 A 4.233 4.233 0 0 0 124.604 17.013 Q 125.933 16.492 126.636 14.971 A 3.97 3.97 0 0 1 127.069 14.231 Q 127.381 13.819 127.765 13.599 A 1.934 1.934 0 0 1 128.745 13.345 L 130.489 13.345 A 1.488 1.488 0 0 1 131.001 13.429 A 1.289 1.289 0 0 1 131.58 13.857 A 1.918 1.918 0 0 1 131.888 14.41 A 1.688 1.688 0 0 1 131.983 14.971 A 5.64 5.64 0 0 1 131.459 17.429 Q 130.907 18.588 129.77 19.454 A 7.263 7.263 0 0 1 129.434 19.695 A 10.09 10.09 0 0 1 124.227 21.398 A 12.411 12.411 0 0 1 123.56 21.416 L 119.986 21.416 A 18.136 18.136 0 0 1 116.926 21.175 Q 115.3 20.896 114.012 20.294 A 8.088 8.088 0 0 1 111.834 18.823 A 7.979 7.979 0 0 1 109.839 15.647 Q 109.116 13.602 109.116 10.803 A 17.203 17.203 0 0 1 109.356 7.83 Q 109.639 6.22 110.257 4.959 A 7.631 7.631 0 0 1 111.834 2.776 A 8.519 8.519 0 0 1 115.041 0.888 Q 117.141 0.176 119.986 0.176 Z M 52.676 10.049 L 50.493 10.049 A 2.154 2.154 0 0 1 48.87 9.334 A 2.983 2.983 0 0 1 48.721 9.163 Q 48.083 8.375 46.347 8.287 A 8.979 8.979 0 0 0 45.894 8.276 Q 42.993 8.276 42.993 9.683 Q 42.993 10.277 43.917 10.693 A 4.276 4.276 0 0 0 44.129 10.781 A 12.924 12.924 0 0 0 45.133 11.12 Q 45.679 11.281 46.308 11.424 A 24.885 24.885 0 0 0 46.897 11.55 Q 48.531 11.88 50.156 12.393 A 6.95 6.95 0 0 1 52.24 13.444 A 6.466 6.466 0 0 1 52.918 14.026 A 3.772 3.772 0 0 1 54.048 16.647 A 5.011 5.011 0 0 1 54.053 16.86 Q 54.053 21.337 46.841 21.578 A 25.286 25.286 0 0 1 45.996 21.592 Q 41.158 21.592 39.225 20.081 A 3.228 3.228 0 0 1 37.94 17.402 A 1 1 0 0 1 37.989 17.083 A 0.844 0.844 0 0 1 38.196 16.751 A 0.866 0.866 0 0 1 38.769 16.497 A 1.158 1.158 0 0 1 38.848 16.494 L 41.031 16.494 A 2.154 2.154 0 0 1 42.654 17.21 A 2.983 2.983 0 0 1 42.803 17.38 Q 43.441 18.168 45.177 18.256 A 8.979 8.979 0 0 0 45.63 18.267 A 12.075 12.075 0 0 0 46.727 18.221 Q 48.985 18.014 48.985 16.86 Q 48.985 16.266 48.061 15.85 A 4.276 4.276 0 0 0 47.849 15.762 A 13.521 13.521 0 0 0 46.844 15.42 Q 46.346 15.272 45.779 15.136 A 25.92 25.92 0 0 0 45.073 14.978 A 35.151 35.151 0 0 1 41.814 14.128 A 6.789 6.789 0 0 1 39.441 12.849 A 6.549 6.549 0 0 1 39.053 12.495 A 3.78 3.78 0 0 1 37.911 9.748 A 4.923 4.923 0 0 1 37.91 9.683 A 3.938 3.938 0 0 1 40.193 5.923 Q 42.084 4.951 45.542 4.951 A 22.952 22.952 0 0 1 48.245 5.096 Q 50.958 5.42 52.289 6.467 A 3.248 3.248 0 0 1 53.57 9.155 A 0.958 0.958 0 0 1 53.512 9.493 A 0.857 0.857 0 0 1 53.321 9.793 A 0.835 0.835 0 0 1 52.778 10.044 A 1.136 1.136 0 0 1 52.676 10.049 Z M 18.355 14.546 L 18.355 6.152 A 1 1 0 0 1 18.404 5.833 A 0.844 0.844 0 0 1 18.611 5.501 Q 18.867 5.244 19.248 5.244 L 22.53 5.244 A 0.931 0.931 0 0 1 22.874 5.306 A 0.855 0.855 0 0 1 23.167 5.501 A 0.866 0.866 0 0 1 23.42 6.074 A 1.158 1.158 0 0 1 23.423 6.152 L 23.423 14.546 A 6.517 6.517 0 0 0 23.538 15.829 Q 23.988 18.062 26.206 18.062 A 3.791 3.791 0 0 0 27.74 17.713 Q 28.822 17.236 29.991 16.106 A 13.319 13.319 0 0 0 30.147 15.952 L 30.147 6.152 A 1 1 0 0 1 30.196 5.833 A 0.844 0.844 0 0 1 30.403 5.501 Q 30.659 5.244 31.04 5.244 L 34.307 5.244 A 1 1 0 0 1 34.626 5.293 A 0.844 0.844 0 0 1 34.959 5.501 A 0.866 0.866 0 0 1 35.212 6.074 A 1.158 1.158 0 0 1 35.215 6.152 L 35.215 20.405 A 0.931 0.931 0 0 1 35.153 20.75 A 0.855 0.855 0 0 1 34.959 21.043 A 0.866 0.866 0 0 1 34.386 21.296 A 1.158 1.158 0 0 1 34.307 21.299 L 31.04 21.299 A 0.931 0.931 0 0 1 30.696 21.237 A 0.855 0.855 0 0 1 30.403 21.043 Q 30.147 20.786 30.147 20.405 L 30.147 19.468 A 9.731 9.731 0 0 1 27.962 20.882 A 7.512 7.512 0 0 1 24.778 21.592 A 7.617 7.617 0 0 1 22.641 21.306 A 5.9 5.9 0 0 1 20.142 19.856 Q 18.681 18.437 18.414 15.789 A 12.42 12.42 0 0 1 18.355 14.546 Z M 134.531 14.546 L 134.531 6.152 A 1 1 0 0 1 134.581 5.833 A 0.844 0.844 0 0 1 134.788 5.501 Q 135.044 5.244 135.425 5.244 L 138.706 5.244 A 0.931 0.931 0 0 1 139.051 5.306 A 0.855 0.855 0 0 1 139.344 5.501 A 0.866 0.866 0 0 1 139.597 6.074 A 1.158 1.158 0 0 1 139.6 6.152 L 139.6 14.546 A 6.517 6.517 0 0 0 139.715 15.829 Q 140.165 18.062 142.383 18.062 A 3.791 3.791 0 0 0 143.917 17.713 Q 144.999 17.236 146.167 16.106 A 13.319 13.319 0 0 0 146.323 15.952 L 146.323 6.152 A 1 1 0 0 1 146.373 5.833 A 0.844 0.844 0 0 1 146.58 5.501 Q 146.836 5.244 147.217 5.244 L 150.484 5.244 A 1 1 0 0 1 150.803 5.293 A 0.844 0.844 0 0 1 151.135 5.501 A 0.866 0.866 0 0 1 151.389 6.074 A 1.158 1.158 0 0 1 151.392 6.152 L 151.392 20.405 A 0.931 0.931 0 0 1 151.33 20.75 A 0.855 0.855 0 0 1 151.135 21.043 A 0.866 0.866 0 0 1 150.563 21.296 A 1.158 1.158 0 0 1 150.484 21.299 L 147.217 21.299 A 0.931 0.931 0 0 1 146.872 21.237 A 0.855 0.855 0 0 1 146.58 21.043 Q 146.323 20.786 146.323 20.405 L 146.323 19.468 A 9.731 9.731 0 0 1 144.139 20.882 A 7.512 7.512 0 0 1 140.955 21.592 A 7.617 7.617 0 0 1 138.818 21.306 A 5.9 5.9 0 0 1 136.319 19.856 Q 134.858 18.437 134.591 15.789 A 12.42 12.42 0 0 1 134.531 14.546 Z M 197.256 14.546 L 197.256 6.152 A 1 1 0 0 1 197.305 5.833 A 0.844 0.844 0 0 1 197.512 5.501 Q 197.769 5.244 198.15 5.244 L 201.431 5.244 A 0.931 0.931 0 0 1 201.776 5.306 A 0.855 0.855 0 0 1 202.068 5.501 A 0.866 0.866 0 0 1 202.322 6.074 A 1.158 1.158 0 0 1 202.324 6.152 L 202.324 14.546 A 6.517 6.517 0 0 0 202.439 15.829 Q 202.89 18.062 205.108 18.062 A 3.791 3.791 0 0 0 206.641 17.713 Q 207.724 17.236 208.892 16.106 A 13.319 13.319 0 0 0 209.048 15.952 L 209.048 6.152 A 1 1 0 0 1 209.097 5.833 A 0.844 0.844 0 0 1 209.304 5.501 Q 209.561 5.244 209.942 5.244 L 213.208 5.244 A 1 1 0 0 1 213.528 5.293 A 0.844 0.844 0 0 1 213.86 5.501 A 0.866 0.866 0 0 1 214.114 6.074 A 1.158 1.158 0 0 1 214.116 6.152 L 214.116 20.405 A 0.931 0.931 0 0 1 214.054 20.75 A 0.855 0.855 0 0 1 213.86 21.043 A 0.866 0.866 0 0 1 213.287 21.296 A 1.158 1.158 0 0 1 213.208 21.299 L 209.942 21.299 A 0.931 0.931 0 0 1 209.597 21.237 A 0.855 0.855 0 0 1 209.304 21.043 Q 209.048 20.786 209.048 20.405 L 209.048 19.468 A 9.731 9.731 0 0 1 206.864 20.882 A 7.512 7.512 0 0 1 203.679 21.592 A 7.617 7.617 0 0 1 201.542 21.306 A 5.9 5.9 0 0 1 199.043 19.856 Q 197.582 18.437 197.316 15.789 A 12.42 12.42 0 0 1 197.256 14.546 Z M 79.058 20.405 L 79.058 6.152 A 1 1 0 0 1 79.107 5.833 A 0.844 0.844 0 0 1 79.314 5.501 Q 79.571 5.244 79.951 5.244 L 83.233 5.244 A 0.931 0.931 0 0 1 83.577 5.306 A 0.855 0.855 0 0 1 83.87 5.501 A 0.866 0.866 0 0 1 84.124 6.074 A 1.158 1.158 0 0 1 84.126 6.152 L 84.126 7.075 A 9.731 9.731 0 0 1 86.311 5.661 A 7.512 7.512 0 0 1 89.495 4.951 A 7.617 7.617 0 0 1 91.632 5.237 A 5.9 5.9 0 0 1 94.131 6.687 Q 95.592 8.106 95.859 10.754 A 12.42 12.42 0 0 1 95.918 11.997 L 95.918 20.405 A 0.931 0.931 0 0 1 95.856 20.75 A 0.855 0.855 0 0 1 95.662 21.043 A 0.866 0.866 0 0 1 95.089 21.296 A 1.158 1.158 0 0 1 95.01 21.299 L 91.743 21.299 A 0.931 0.931 0 0 1 91.399 21.237 A 0.855 0.855 0 0 1 91.106 21.043 Q 90.85 20.786 90.85 20.405 L 90.85 11.997 A 6.431 6.431 0 0 0 90.734 10.719 Q 90.332 8.742 88.524 8.523 A 3.927 3.927 0 0 0 88.052 8.496 A 3.796 3.796 0 0 0 86.521 8.842 Q 85.405 9.332 84.201 10.516 A 13.352 13.352 0 0 0 84.126 10.591 L 84.126 20.405 A 0.931 0.931 0 0 1 84.064 20.75 A 0.855 0.855 0 0 1 83.87 21.043 Q 83.614 21.299 83.233 21.299 L 79.951 21.299 A 0.931 0.931 0 0 1 79.607 21.237 A 0.855 0.855 0 0 1 79.314 21.043 Q 79.058 20.786 79.058 20.405 Z M 216.607 20.01 L 221.704 13.257 L 216.944 6.533 A 1.589 1.589 0 0 1 216.812 6.332 Q 216.543 5.84 216.885 5.449 A 0.572 0.572 0 0 1 217.222 5.259 A 0.852 0.852 0 0 1 217.383 5.244 L 220.562 5.244 A 2.548 2.548 0 0 1 222.548 6.145 A 3.635 3.635 0 0 1 222.847 6.533 L 225.279 10.225 L 227.71 6.533 A 3.231 3.231 0 0 1 228.387 5.786 A 2.522 2.522 0 0 1 229.995 5.244 L 233.174 5.244 A 0.813 0.813 0 0 1 233.378 5.268 A 0.563 0.563 0 0 1 233.672 5.449 A 0.834 0.834 0 0 1 233.801 5.643 Q 233.988 6.041 233.614 6.533 L 228.853 13.257 L 233.95 20.01 A 1.31 1.31 0 0 1 234.068 20.161 Q 234.121 20.242 234.15 20.32 A 0.513 0.513 0 0 1 234.185 20.501 A 1.426 1.426 0 0 1 234.18 20.62 Q 234.168 20.761 234.126 20.845 Q 234.034 21.202 233.697 21.278 A 0.911 0.911 0 0 1 233.496 21.299 L 230.376 21.299 A 2.567 2.567 0 0 1 228.537 20.528 A 3.954 3.954 0 0 1 228.091 20.01 L 225.279 16.201 L 222.451 20.01 A 3.631 3.631 0 0 1 221.8 20.717 A 2.493 2.493 0 0 1 220.181 21.299 L 217.061 21.299 A 0.868 0.868 0 0 1 216.823 21.269 Q 216.551 21.191 216.453 20.916 A 0.813 0.813 0 0 1 216.431 20.845 A 0.753 0.753 0 0 1 216.391 20.704 Q 216.378 20.633 216.374 20.551 A 1.43 1.43 0 0 1 216.372 20.486 Q 216.372 20.282 216.589 20.03 A 1.708 1.708 0 0 1 216.607 20.01 Z M 194.561 13.081 L 194.561 13.916 A 1 1 0 0 1 194.512 14.236 A 0.844 0.844 0 0 1 194.304 14.568 A 0.866 0.866 0 0 1 193.731 14.822 A 1.158 1.158 0 0 1 193.653 14.824 L 182.622 14.824 A 6.375 6.375 0 0 0 182.774 15.808 Q 182.899 16.32 183.108 16.719 A 2.664 2.664 0 0 0 183.655 17.446 Q 184.541 18.267 186.489 18.267 A 6.783 6.783 0 0 0 187.387 18.212 Q 188.409 18.075 188.953 17.597 A 1.756 1.756 0 0 0 189.156 17.388 A 2.577 2.577 0 0 1 189.794 16.816 A 2.174 2.174 0 0 1 190.928 16.494 L 193.111 16.494 A 1 1 0 0 1 193.43 16.543 A 0.844 0.844 0 0 1 193.762 16.751 A 0.866 0.866 0 0 1 194.016 17.324 A 1.158 1.158 0 0 1 194.019 17.402 Q 194.019 21.592 186.062 21.592 A 30.422 30.422 0 0 1 186.006 21.592 Q 181.963 21.592 179.707 19.453 A 6.896 6.896 0 0 1 177.81 16.199 Q 177.507 15.099 177.46 13.787 A 13.724 13.724 0 0 1 177.451 13.294 A 11.427 11.427 0 0 1 177.696 10.855 Q 178.196 8.564 179.722 7.112 Q 181.992 4.951 186.021 4.951 Q 190.049 4.951 192.305 7.053 Q 194.561 9.155 194.561 13.081 Z M 182.593 11.733 L 189.405 11.733 A 5.378 5.378 0 0 0 189.186 10.365 Q 188.536 8.276 186.013 8.276 A 4.391 4.391 0 0 0 184.632 8.476 Q 182.727 9.107 182.593 11.733 Z M 64.409 18.12 L 66.416 17.944 L 66.958 17.944 A 1.028 1.028 0 0 1 67.275 17.991 A 0.849 0.849 0 0 1 67.61 18.193 A 0.835 0.835 0 0 1 67.862 18.735 A 1.136 1.136 0 0 1 67.866 18.838 L 67.866 20.405 A 0.768 0.768 0 0 1 67.691 20.894 A 1.052 1.052 0 0 1 67.61 20.984 A 1.096 1.096 0 0 1 67.078 21.276 A 1.392 1.392 0 0 1 66.958 21.299 A 13.168 13.168 0 0 1 65.824 21.466 Q 65.231 21.529 64.541 21.56 A 32.504 32.504 0 0 1 63.062 21.592 A 8.641 8.641 0 0 1 60.531 21.254 Q 56.763 20.098 56.763 15 L 56.763 1.201 A 1 1 0 0 1 56.812 0.882 A 0.844 0.844 0 0 1 57.019 0.549 Q 57.276 0.293 57.656 0.293 L 60.938 0.293 A 0.931 0.931 0 0 1 61.282 0.355 A 0.855 0.855 0 0 1 61.575 0.549 A 0.866 0.866 0 0 1 61.829 1.122 A 1.158 1.158 0 0 1 61.831 1.201 L 61.831 6.094 L 65.918 6.094 A 0.958 0.958 0 0 1 66.255 6.151 A 0.857 0.857 0 0 1 66.555 6.343 A 0.835 0.835 0 0 1 66.807 6.885 A 1.136 1.136 0 0 1 66.812 6.987 L 66.812 8.731 Q 66.812 9.126 66.555 9.375 Q 66.299 9.624 65.918 9.624 L 61.831 9.624 L 61.831 15 A 5.098 5.098 0 0 0 61.905 15.897 Q 61.994 16.391 62.188 16.783 A 2.488 2.488 0 0 0 62.534 17.307 A 2.309 2.309 0 0 0 64.194 18.113 A 3.198 3.198 0 0 0 64.409 18.12 Z M 1.377 16.89 L 1.861 16.89 L 4.322 17.153 L 5.376 17.153 Q 7.333 17.153 8.255 16.382 A 2.268 2.268 0 0 0 8.328 16.318 A 2.433 2.433 0 0 0 8.937 15.411 Q 9.243 14.651 9.243 13.51 A 7.542 7.542 0 0 0 9.243 13.506 L 9.243 1.685 A 1.351 1.351 0 0 1 9.643 0.706 A 1.689 1.689 0 0 1 9.646 0.703 A 1.313 1.313 0 0 1 10.598 0.293 A 1.578 1.578 0 0 1 10.62 0.293 L 13.345 0.293 A 1.448 1.448 0 0 1 13.922 0.405 A 1.381 1.381 0 0 1 14.356 0.703 A 1.372 1.372 0 0 1 14.698 1.247 A 1.39 1.39 0 0 1 14.766 1.685 L 14.766 13.462 A 9.019 9.019 0 0 1 14.451 15.912 A 6.501 6.501 0 0 1 12.276 19.255 A 8.486 8.486 0 0 1 9.13 20.85 Q 7.521 21.299 5.523 21.299 L 1.377 21.299 A 1.326 1.326 0 0 1 0.416 20.909 A 1.599 1.599 0 0 1 0.403 20.896 A 1.325 1.325 0 0 1 0 19.94 A 1.608 1.608 0 0 1 0 19.922 L 0 18.267 A 1.353 1.353 0 0 1 0.388 17.293 A 1.299 1.299 0 0 1 1.303 16.891 A 1.733 1.733 0 0 1 1.377 16.89 Z M 166.568 8.965 L 166.099 8.965 L 163.843 8.877 Q 162.198 8.877 160.676 10.376 A 9.092 9.092 0 0 0 160.064 11.045 L 160.064 20.405 Q 160.064 20.801 159.807 21.05 Q 159.551 21.299 159.17 21.299 L 155.889 21.299 A 1.023 1.023 0 0 1 155.586 21.256 A 0.817 0.817 0 0 1 155.244 21.05 A 0.839 0.839 0 0 1 155.003 20.537 A 1.146 1.146 0 0 1 154.995 20.405 L 154.995 6.152 A 1 1 0 0 1 155.044 5.833 A 0.844 0.844 0 0 1 155.252 5.501 Q 155.508 5.244 155.889 5.244 L 159.17 5.244 Q 159.566 5.244 159.815 5.501 A 0.871 0.871 0 0 1 160.059 6.044 A 1.169 1.169 0 0 1 160.064 6.152 L 160.064 7.075 Q 161.558 5.991 162.942 5.471 A 7.053 7.053 0 0 1 164.101 5.154 Q 165.167 4.951 166.568 4.951 A 1 1 0 0 1 166.887 5 A 0.844 0.844 0 0 1 167.219 5.208 Q 167.476 5.464 167.476 5.845 L 167.476 8.071 Q 167.476 8.467 167.219 8.716 A 0.871 0.871 0 0 1 166.676 8.96 A 1.169 1.169 0 0 1 166.568 8.965 Z M 70.327 20.405 L 70.327 6.504 Q 70.327 6.108 70.584 5.859 Q 70.84 5.61 71.221 5.61 L 74.502 5.61 Q 74.898 5.61 75.147 5.867 Q 75.396 6.123 75.396 6.504 L 75.396 20.405 Q 75.396 20.801 75.139 21.05 Q 74.883 21.299 74.502 21.299 L 71.221 21.299 A 1.023 1.023 0 0 1 70.919 21.256 A 0.817 0.817 0 0 1 70.576 21.05 A 0.839 0.839 0 0 1 70.335 20.537 A 1.146 1.146 0 0 1 70.327 20.405 Z M 169.629 20.405 L 169.629 6.504 Q 169.629 6.108 169.885 5.859 Q 170.142 5.61 170.523 5.61 L 173.804 5.61 Q 174.199 5.61 174.448 5.867 Q 174.698 6.123 174.698 6.504 L 174.698 20.405 Q 174.698 20.801 174.441 21.05 Q 174.185 21.299 173.804 21.299 L 170.523 21.299 A 1.023 1.023 0 0 1 170.22 21.256 A 0.817 0.817 0 0 1 169.878 21.05 A 0.839 0.839 0 0 1 169.637 20.537 A 1.146 1.146 0 0 1 169.629 20.405 Z M 70.269 2.183 L 70.269 1.685 A 2.184 2.184 0 0 1 70.326 1.168 A 1.502 1.502 0 0 1 70.716 0.454 A 1.471 1.471 0 0 1 71.445 0.055 A 2.219 2.219 0 0 1 71.953 0 L 73.77 0 A 2.184 2.184 0 0 1 74.286 0.058 A 1.502 1.502 0 0 1 75 0.447 A 1.471 1.471 0 0 1 75.399 1.176 A 2.219 2.219 0 0 1 75.454 1.685 L 75.454 2.183 A 2.184 2.184 0 0 1 75.397 2.699 A 1.502 1.502 0 0 1 75.008 3.413 A 1.471 1.471 0 0 1 74.278 3.812 A 2.219 2.219 0 0 1 73.77 3.867 L 71.953 3.867 A 2.15 2.15 0 0 1 71.437 3.809 A 1.495 1.495 0 0 1 70.723 3.413 A 1.51 1.51 0 0 1 70.313 2.636 A 2.206 2.206 0 0 1 70.269 2.183 Z M 169.571 2.183 L 169.571 1.685 A 2.184 2.184 0 0 1 169.628 1.168 A 1.502 1.502 0 0 1 170.017 0.454 A 1.471 1.471 0 0 1 170.747 0.055 A 2.219 2.219 0 0 1 171.255 0 L 173.072 0 A 2.184 2.184 0 0 1 173.588 0.058 A 1.502 1.502 0 0 1 174.302 0.447 A 1.471 1.471 0 0 1 174.701 1.176 A 2.219 2.219 0 0 1 174.756 1.685 L 174.756 2.183 A 2.184 2.184 0 0 1 174.698 2.699 A 1.502 1.502 0 0 1 174.309 3.413 A 1.471 1.471 0 0 1 173.58 3.812 A 2.219 2.219 0 0 1 173.072 3.867 L 171.255 3.867 A 2.15 2.15 0 0 1 170.739 3.809 A 1.495 1.495 0 0 1 170.025 3.413 A 1.51 1.51 0 0 1 169.615 2.636 A 2.206 2.206 0 0 1 169.571 2.183 Z"/></g></svg>