<?xml version="1.0" encoding="utf-8"?>
<!-- Generator: Adobe Illustrator 24.1.3, SVG Export Plug-In . SVG Version: 6.00 Build 0)  -->
<svg version="1.1" id="Layer_1" xmlns="http://www.w3.org/2000/svg" xmlns:xlink="http://www.w3.org/1999/xlink" x="0px" y="0px"
	 viewBox="0 0 2000 2000" style="enable-background:new 0 0 2000 2000;" xml:space="preserve">
<style type="text/css">
	.st0{display:none;}
	.st1{display:inline;fill:none;stroke:#FF0000;stroke-width:15;stroke-linecap:round;stroke-linejoin:round;stroke-miterlimit:10;}
	.st2{display:inline;fill:#FF0000;}
	.st3{display:inline;fill:none;stroke:#FF0000;stroke-width:13;stroke-linecap:round;stroke-linejoin:round;stroke-miterlimit:10;}
	.st4{display:inline;}
	.st5{display:inline;fill:none;stroke:#FF0000;stroke-width:14.22;stroke-miterlimit:10;}
	.st6{fill:#FF5D01;}
</style>
<g>
	<g>
		<path class="st6" d="M456.64,1276.9h16.04v89.8c0,20.23-13.6,32.95-33.65,32.95c-20.23,0-33.83-12.9-33.83-34.17h15.87
			c0.18,11.16,5.41,20.05,17.96,20.05c12.55,0,17.61-8.72,17.61-18.83V1276.9z"/>
		<path class="st6" d="M588.63,1398.43h-15.87v-14.12c-6.1,9.94-17.78,15.52-30.51,15.52c-21.97,0-39.23-13.6-39.23-40.97v-55.97
			h15.69v53.88c0,19.35,10.64,29.29,26.68,29.29c16.39,0,27.37-10.11,27.37-30.69v-52.48h15.87V1398.43z"/>
		<path class="st6" d="M649.3,1400c-22.32,0-38.01-12.2-39.06-29.64h16.39c0.87,9.24,9.07,16.22,22.49,16.22
			c12.55,0,19.53-6.28,19.53-14.12c0-21.27-56.49-8.89-56.49-44.46c0-14.65,13.77-26.68,35.04-26.68c21.1,0,35.05,11.33,36.09,29.99
			h-15.87c-0.7-9.59-8.02-16.56-20.75-16.56c-11.68,0-18.66,5.58-18.66,13.25c0,22.67,55.45,10.29,56.14,44.46
			C684.17,1388.14,670.4,1400,649.3,1400z"/>
		<path class="st6" d="M709.97,1315.96h-12.38v-13.08h12.38v-24.06h15.87v24.06h24.93v13.08h-24.93v56.32
			c0,9.42,3.49,12.73,13.25,12.73h11.68v13.43h-14.3c-16.91,0-26.5-6.97-26.5-26.15V1315.96z"/>
		<path class="st6" d="M767.33,1276.55c0-6.1,4.71-10.81,10.81-10.81c5.75,0,10.46,4.71,10.46,10.81c0,6.1-4.71,10.81-10.46,10.81
			C772.04,1287.36,767.33,1282.66,767.33,1276.55z M769.95,1302.88h15.87v95.55h-15.87V1302.88z"/>
		<path class="st6" d="M882.75,1344.38c0-19.53-10.64-29.47-26.68-29.47c-16.22,0-27.37,10.11-27.37,30.69v52.83h-15.87v-95.55
			h15.87v13.6c6.28-9.94,17.78-15.34,30.69-15.34c22.14,0,39.06,13.6,39.06,40.97v56.32h-15.69V1344.38z"/>
		<path d="M978.82,1275.16c27.03,0,49,14.47,57.19,39.41h-28.07c-5.75-11.68-16.22-17.44-29.29-17.44
			c-21.27,0-36.44,15.52-36.44,40.28c0,24.58,15.17,40.28,36.44,40.28c13.08,0,23.54-5.75,29.29-17.61h28.07
			c-8.19,25.11-30.16,39.41-57.19,39.41c-35.05,0-61.72-25.63-61.72-62.07C917.09,1300.96,943.77,1275.16,978.82,1275.16z"/>
		<path d="M1148.11,1398.43h-24.59v-12.2c-6.1,8.19-16.74,13.43-28.77,13.43c-22.49,0-38.71-14.65-38.71-41.15v-56.67h24.41v53.18
			c0,15.52,8.54,23.89,21.45,23.89c13.25,0,21.62-8.37,21.62-23.89v-53.18h24.59V1398.43z"/>
		<path d="M1196.58,1398.43h-24.41v-96.59h24.41v14.99c6.1-9.94,16.21-16.39,29.64-16.39v25.63h-6.45
			c-14.47,0-23.19,5.58-23.19,24.24V1398.43z"/>
		<path d="M1239.99,1276.03c0-8.02,6.28-14.3,14.99-14.3c8.55,0,15,6.28,15,14.3c0,8.02-6.45,14.3-15,14.3
			C1246.27,1290.33,1239.99,1284.05,1239.99,1276.03z M1242.6,1301.84h24.41v96.59h-24.41V1301.84z"/>
		<path d="M1333.27,1400c-28.07,0-48.47-19.53-48.47-49.87c0-30.51,19.88-49.87,48.47-49.87c27.9,0,47.6,19.01,47.6,47.78
			c0,3.14-0.18,6.28-0.7,9.42h-70.62c1.22,14.3,10.98,22.32,23.19,22.32c10.46,0,16.22-5.23,19.35-11.68h26.33
			C1373.2,1385.88,1357.16,1400,1333.27,1400z M1309.73,1341.07h45.86c-0.35-12.73-10.46-20.75-23.02-20.75
			C1320.89,1320.32,1311.65,1327.81,1309.73,1341.07z"/>
		<path d="M1489.84,1398.43h-24.59v-12.2c-6.1,8.19-16.74,13.43-28.77,13.43c-22.49,0-38.71-14.65-38.71-41.15v-56.67h24.41v53.18
			c0,15.52,8.54,23.89,21.44,23.89c13.25,0,21.62-8.37,21.62-23.89v-53.18h24.59V1398.43z"/>
		<path d="M1547.37,1368.44l-17.61,29.99h-26.16l31.56-48.47l-31.91-48.12h27.55l19.7,29.82l17.79-29.82h26.15l-31.73,48.12
			l32.08,48.47h-27.55L1547.37,1368.44z"/>
	</g>
	<g>
		<path class="st6" d="M1251.81,1000.69c0.01,43.8-13.34,84.64-36.18,118.43c-5.18,7.65-10.84,14.95-16.94,21.85
			c-20.82,23.54-46.81,42.42-76.22,54.86c-1.92,0.81-3.86,1.59-5.81,2.33c-0.27,0.11-0.52,0.22-0.79,0.32
			c-3.66,5.88-7.32,10.79-10.63,14.77c-5.91,7.08-10.68,11.18-12.24,12.45c-0.06,0.05-0.12,0.1-0.17,0.15h-0.06l-0.06-0.15H879.25
			c2.92-22.51,15.42-29.16,23.42-31.1c4.02-0.96,6.91-0.74,6.91-0.74l-4.83-4.15l-13.07-11.25l-3.2-2.75l-30.16,49.99h-54.5
			c40.08-72.89,53.85-136.77,44.06-192.5c-3.56-20.31-10.25-39.53-19.93-57.73c-36.31-68.19,10.76-178.83,10.76-178.83
			c-51.22,19.52-90.52-29-90.52-29c5.42-6.77,10.57-16.27,22.49-57.46c11.94-41.19,39.3-50.69,39.3-50.69
			c-5.74-6.21-22.03-59.49-22.03-59.49s70.14,3.38,121.23,43.29c32.49,25.39,50.27,64.96,50.26,106.18
			c-0.01,19.66,1.87,37.82,5.25,54.74c21.26,106.46,101.95,163.11,145.74,227.94c24.13,35.72,33.17,79.7,23.71,121.43
			c2.1-1.31,4.2-2.64,6.25-4.02c16.89-11.41,31.75-25.64,43.86-41.99c8.46-11.38,15.6-23.8,21.19-37.02
			c9.08-21.47,14.1-45.04,14.1-69.87c0-37.23-11.29-71.68-30.65-100.35c-19.36-28.66-46.81-51.44-78.99-65.05
			c-10.74-4.54-21.99-8.07-33.67-10.46c-6.18-1.27-12.47-2.21-18.88-2.82c-5.7-0.55-11.47-0.83-17.32-0.83
			c-8.91,0-16.12-7.21-16.12-16.12c0-1.9,0.33-3.73,0.94-5.42c2.22-6.25,8.18-10.72,15.18-10.72c43.8,0,84.63,13.35,118.41,36.18
			c33.8,22.84,60.62,55.14,76.71,93.16C1245.89,943.61,1251.81,971.5,1251.81,1000.69z"/>
		<g>
			<polygon points="1074.9,1225.69 1057.04,1225.56 1000.04,1090.79 942.98,1225.69 925.16,1225.69 1000.04,1048.68 			"/>
			<path d="M1110.5,1225.69H1093c-0.06,0.05-0.12,0.1-0.17,0.15h-0.06l-0.06-0.15l-92.69-219.13l-92.67,219.13h-17.82l13.14-31.1
				l2.07-4.89l95.27-225.24l105.22,248.79L1110.5,1225.69z"/>
			<path d="M1235.31,1225.69h-107l-11.64-27.53L1016.3,960.88l-8.84-20.91l-7.46-17.64l-7.47,17.64l-8.84,20.91l-92.03,217.57
				l-19.98,47.25h-107l83.19-192.5l83.18-192.49c6.9-15.95,18.92-28.65,33.64-36.49c10.66-5.68,22.74-8.81,35.31-8.81
				c8.62,0,17,1.48,24.85,4.24c12.62,4.42,23.86,12.14,32.5,22.37c4.7,5.54,8.63,11.83,11.59,18.71l115.31,266.86l14.43,33.38
				L1235.31,1225.69z"/>
		</g>
	</g>
</g>
</svg>
